<?xml version="1.0" encoding="utf-8"?>
<!-- Generator: Adobe Illustrator 19.2.1, SVG Export Plug-In . SVG Version: 6.00 Build 0)  -->
<svg version="1.1" id="layer" xmlns="http://www.w3.org/2000/svg" xmlns:xlink="http://www.w3.org/1999/xlink" x="0px" y="0px"
	 viewBox="0 0 652 652" style="enable-background:new 0 0 652 652;" xml:space="preserve">
<style type="text/css">
	.st0{fill:#E6001A;}
	.st1{fill:#FFFFFF;}
</style>
<rect x="71.7" y="70.7" class="st0" width="500" height="500"/>
<path class="st1" d="M454.7,330.6c-7.2,8.3-18,11.9-31.8,12c-31.4,0.3-34.4-11.6-34.4-11.6c-3.2-7.3,7.3-22,72.9-56.8
	c1.6,4,2.9,9.2,3.8,14.1C465.2,288.5,468.6,314.6,454.7,330.6 M281.2,303.3c0-0.3-3.4-26.4,10.5-42.3c7.2-8.3,17.8-12.4,31.6-12.4
	c14.8,0,27.3,5.2,28.6,11.1c1,4.4-3.2,10.2-22.4,25.5c-0.2,0.2-19.6,16.6-44.6,31.5C283.3,312.6,282,308.1,281.2,303.3 M477.1,296.2
	c0-55.8-42.5-59.8-51.3-59.8c-13.8,0-27.1,2.9-41.1,8.4l-1,14.7c5.5-2.6,22.9-10.1,40.3-10.1c13.7,0,24.3,4.6,31.4,13.7
	c-47.2,24.8-75.4,44.8-79.6,61.4c-12.1,8.2-33.4,17.6-52.3,17.6c-20.2,0-28.9-8.7-32.6-13.8c51.8-34.9,78.6-55,75.3-70.8
	c-3-14.3-24.2-21-43.3-21c-19.5,0-32.9,8.4-39.2,15c-10.2,10.5-15.1,26.1-14.4,46.3c0.3,8.9,2,18.1,4.9,26.1
	c-7.9,5.2-29.6,18.2-54.4,18.2c-29.5,0-41.6-23.1-41.6-46.3c0-22.6,11.3-46.4,41.6-46.4c17,0,34.2,7.2,40,9.9l-1-14.7
	c-11-4.3-25.5-8.2-38-8.2c-50.2,0-54.3,42.1-54.1,59.3c-0.2,17.2,4.4,59.3,53.6,59.3c29.8,0,55.1-16.4,59.8-19.3
	c3.2,5.6,15.9,19.3,43.3,19.3c21.7,0,45.8-10.8,53.9-16c4.9,6.6,15,16,45.8,16c20.3,0,33.2-7,41.3-16.7c0.1,5.1,0.3,10.1,0.6,13.9
	l12.3,1.9C476.8,341.3,477.1,296.8,477.1,296.2 M465,394H178.9v12.2H465V394z"/>
</svg>
